<mxfile host="Electron" agent="Mozilla/5.0 (Windows NT 10.0; Win64; x64) AppleWebKit/537.36 (KHTML, like Gecko) draw.io/26.1.1 Chrome/132.0.6834.210 Electron/34.3.3 Safari/537.36" version="26.1.1">
  <diagram name="Page-1" id="K4tfnhxpZpGszGvBWsfs">
    <mxGraphModel dx="1290" dy="629" grid="1" gridSize="10" guides="1" tooltips="1" connect="1" arrows="1" fold="1" page="1" pageScale="1" pageWidth="1654" pageHeight="1169" math="0" shadow="0">
      <root>
        <mxCell id="0" />
        <mxCell id="1" parent="0" />
        <mxCell id="u1Dj_TPcVv8UqVXJvx4l-5" style="edgeStyle=orthogonalEdgeStyle;rounded=0;orthogonalLoop=1;jettySize=auto;html=1;exitX=1;exitY=0.5;exitDx=0;exitDy=0;" edge="1" parent="1" source="u1Dj_TPcVv8UqVXJvx4l-1" target="u1Dj_TPcVv8UqVXJvx4l-4">
          <mxGeometry relative="1" as="geometry" />
        </mxCell>
        <mxCell id="u1Dj_TPcVv8UqVXJvx4l-16" style="edgeStyle=orthogonalEdgeStyle;rounded=0;orthogonalLoop=1;jettySize=auto;html=1;exitX=0.5;exitY=1;exitDx=0;exitDy=0;entryX=0;entryY=0.5;entryDx=0;entryDy=0;" edge="1" parent="1" source="u1Dj_TPcVv8UqVXJvx4l-1" target="u1Dj_TPcVv8UqVXJvx4l-11">
          <mxGeometry relative="1" as="geometry" />
        </mxCell>
        <mxCell id="u1Dj_TPcVv8UqVXJvx4l-1" value="q0" style="ellipse;whiteSpace=wrap;html=1;aspect=fixed;" vertex="1" parent="1">
          <mxGeometry x="380" y="270" width="80" height="80" as="geometry" />
        </mxCell>
        <mxCell id="u1Dj_TPcVv8UqVXJvx4l-2" value="" style="endArrow=classic;html=1;rounded=0;entryX=0;entryY=0.5;entryDx=0;entryDy=0;" edge="1" parent="1" target="u1Dj_TPcVv8UqVXJvx4l-1">
          <mxGeometry width="50" height="50" relative="1" as="geometry">
            <mxPoint x="300" y="310" as="sourcePoint" />
            <mxPoint x="440" y="280" as="targetPoint" />
          </mxGeometry>
        </mxCell>
        <mxCell id="u1Dj_TPcVv8UqVXJvx4l-3" value="START" style="text;html=1;align=center;verticalAlign=middle;resizable=0;points=[];autosize=1;strokeColor=none;fillColor=none;" vertex="1" parent="1">
          <mxGeometry x="300" y="278" width="60" height="30" as="geometry" />
        </mxCell>
        <mxCell id="u1Dj_TPcVv8UqVXJvx4l-9" style="edgeStyle=orthogonalEdgeStyle;rounded=0;orthogonalLoop=1;jettySize=auto;html=1;exitX=1;exitY=0.5;exitDx=0;exitDy=0;entryX=0;entryY=0.5;entryDx=0;entryDy=0;" edge="1" parent="1" source="u1Dj_TPcVv8UqVXJvx4l-4" target="u1Dj_TPcVv8UqVXJvx4l-7">
          <mxGeometry relative="1" as="geometry" />
        </mxCell>
        <mxCell id="u1Dj_TPcVv8UqVXJvx4l-12" style="edgeStyle=orthogonalEdgeStyle;rounded=0;orthogonalLoop=1;jettySize=auto;html=1;exitX=0.5;exitY=1;exitDx=0;exitDy=0;entryX=0.5;entryY=0;entryDx=0;entryDy=0;" edge="1" parent="1" source="u1Dj_TPcVv8UqVXJvx4l-4" target="u1Dj_TPcVv8UqVXJvx4l-11">
          <mxGeometry relative="1" as="geometry" />
        </mxCell>
        <mxCell id="u1Dj_TPcVv8UqVXJvx4l-4" value="q1" style="ellipse;whiteSpace=wrap;html=1;aspect=fixed;" vertex="1" parent="1">
          <mxGeometry x="560" y="270" width="80" height="80" as="geometry" />
        </mxCell>
        <mxCell id="u1Dj_TPcVv8UqVXJvx4l-6" value="0" style="text;html=1;align=center;verticalAlign=middle;resizable=0;points=[];autosize=1;strokeColor=none;fillColor=none;" vertex="1" parent="1">
          <mxGeometry x="485" y="278" width="30" height="30" as="geometry" />
        </mxCell>
        <mxCell id="u1Dj_TPcVv8UqVXJvx4l-7" value="" style="ellipse;whiteSpace=wrap;html=1;aspect=fixed;" vertex="1" parent="1">
          <mxGeometry x="740" y="270" width="80" height="80" as="geometry" />
        </mxCell>
        <mxCell id="u1Dj_TPcVv8UqVXJvx4l-8" value="q3" style="ellipse;whiteSpace=wrap;html=1;aspect=fixed;" vertex="1" parent="1">
          <mxGeometry x="750" y="280" width="60" height="60" as="geometry" />
        </mxCell>
        <mxCell id="u1Dj_TPcVv8UqVXJvx4l-10" value="0" style="text;html=1;align=center;verticalAlign=middle;resizable=0;points=[];autosize=1;strokeColor=none;fillColor=none;" vertex="1" parent="1">
          <mxGeometry x="665" y="278" width="30" height="30" as="geometry" />
        </mxCell>
        <mxCell id="u1Dj_TPcVv8UqVXJvx4l-14" style="edgeStyle=orthogonalEdgeStyle;rounded=0;orthogonalLoop=1;jettySize=auto;html=1;exitX=1;exitY=0.5;exitDx=0;exitDy=0;entryX=0;entryY=1;entryDx=0;entryDy=0;" edge="1" parent="1" source="u1Dj_TPcVv8UqVXJvx4l-11" target="u1Dj_TPcVv8UqVXJvx4l-7">
          <mxGeometry relative="1" as="geometry" />
        </mxCell>
        <mxCell id="u1Dj_TPcVv8UqVXJvx4l-18" style="edgeStyle=orthogonalEdgeStyle;rounded=0;orthogonalLoop=1;jettySize=auto;html=1;exitX=0;exitY=0;exitDx=0;exitDy=0;entryX=0;entryY=1;entryDx=0;entryDy=0;" edge="1" parent="1" source="u1Dj_TPcVv8UqVXJvx4l-11" target="u1Dj_TPcVv8UqVXJvx4l-4">
          <mxGeometry relative="1" as="geometry" />
        </mxCell>
        <mxCell id="u1Dj_TPcVv8UqVXJvx4l-11" value="q2" style="ellipse;whiteSpace=wrap;html=1;aspect=fixed;" vertex="1" parent="1">
          <mxGeometry x="560" y="440" width="80" height="80" as="geometry" />
        </mxCell>
        <mxCell id="u1Dj_TPcVv8UqVXJvx4l-13" value="1" style="text;html=1;align=center;verticalAlign=middle;resizable=0;points=[];autosize=1;strokeColor=none;fillColor=none;" vertex="1" parent="1">
          <mxGeometry x="595" y="378" width="30" height="30" as="geometry" />
        </mxCell>
        <mxCell id="u1Dj_TPcVv8UqVXJvx4l-15" value="1" style="text;html=1;align=center;verticalAlign=middle;resizable=0;points=[];autosize=1;strokeColor=none;fillColor=none;" vertex="1" parent="1">
          <mxGeometry x="710" y="440" width="30" height="30" as="geometry" />
        </mxCell>
        <mxCell id="u1Dj_TPcVv8UqVXJvx4l-17" value="1" style="text;html=1;align=center;verticalAlign=middle;resizable=0;points=[];autosize=1;strokeColor=none;fillColor=none;" vertex="1" parent="1">
          <mxGeometry x="445" y="448" width="30" height="30" as="geometry" />
        </mxCell>
        <mxCell id="u1Dj_TPcVv8UqVXJvx4l-19" value="0" style="text;html=1;align=center;verticalAlign=middle;resizable=0;points=[];autosize=1;strokeColor=none;fillColor=none;" vertex="1" parent="1">
          <mxGeometry x="545" y="368" width="30" height="30" as="geometry" />
        </mxCell>
        <mxCell id="u1Dj_TPcVv8UqVXJvx4l-20" style="edgeStyle=orthogonalEdgeStyle;rounded=0;orthogonalLoop=1;jettySize=auto;html=1;exitX=1;exitY=0.5;exitDx=0;exitDy=0;" edge="1" parent="1" source="u1Dj_TPcVv8UqVXJvx4l-7" target="u1Dj_TPcVv8UqVXJvx4l-7">
          <mxGeometry relative="1" as="geometry" />
        </mxCell>
        <mxCell id="u1Dj_TPcVv8UqVXJvx4l-21" value="0, 1" style="text;html=1;align=center;verticalAlign=middle;resizable=0;points=[];autosize=1;strokeColor=none;fillColor=none;" vertex="1" parent="1">
          <mxGeometry x="850" y="328" width="40" height="30" as="geometry" />
        </mxCell>
      </root>
    </mxGraphModel>
  </diagram>
</mxfile>
